<?xml version="1.0" encoding="UTF-8" standalone="no"?>
<svg
   height="240"
   viewBox="0 0 240 240"
   width="240"
   fill="#000000"
   version="1.1"
   id="svg275"
   sodipodi:docname="logo.svg"
   inkscape:version="1.2.1 (9c6d41e410, 2022-07-14)"
   xmlns:inkscape="http://www.inkscape.org/namespaces/inkscape"
   xmlns:sodipodi="http://sodipodi.sourceforge.net/DTD/sodipodi-0.dtd"
   xmlns="http://www.w3.org/2000/svg"
   xmlns:svg="http://www.w3.org/2000/svg">
  <defs
     id="defs279" />
  <sodipodi:namedview
     id="namedview277"
     pagecolor="#ffffff"
     bordercolor="#000000"
     borderopacity="0.25"
     inkscape:showpageshadow="2"
     inkscape:pageopacity="0.0"
     inkscape:pagecheckerboard="0"
     inkscape:deskcolor="#d1d1d1"
     showgrid="false"
     inkscape:zoom="2.8284271"
     inkscape:cx="216.90501"
     inkscape:cy="156.09382"
     inkscape:window-width="2560"
     inkscape:window-height="1361"
     inkscape:window-x="-9"
     inkscape:window-y="-9"
     inkscape:window-maximized="1"
     inkscape:current-layer="svg275" />
  <path
     d="m 120,33.960396 c -54.648,0 -99,43.912871 -99,98.019804 C 21,186.08713 65.352,230 120,230 c 54.648,0 99,-43.91287 99,-98.0198 0,-54.106933 -44.352,-98.019804 -99,-98.019804 z m 0,176.435644 c -43.659,0 -79.2,-35.18911 -79.2,-78.41584 0,-43.226735 35.541,-78.415844 79.2,-78.415844 43.659,0 79.2,35.189109 79.2,78.415844 0,43.22673 -35.541,78.41584 -79.2,78.41584 z m 3.069,-86.84554 c -17.523,-4.4109 -23.166,-9.21387 -23.166,-16.36931 0,-8.233665 7.821,-14.016834 20.79,-14.016834 13.662,0 18.81,6.469307 19.206,16.075244 h 16.929 C 156.333,96.10495 148.215,84.048515 132.177,80.127723 V 63.366337 H 109.11 v 16.565346 c -14.949,3.136634 -26.928,12.742574 -26.928,27.543567 0,17.54554 14.751,26.36732 36.234,31.46435 19.305,4.50891 23.166,11.27228 23.166,18.32971 0,5.19505 -3.861,13.62475 -20.79,13.62475 -15.84,0 -22.077,-7.05743 -22.968,-16.07525 H 80.796 c 0.99,16.66337 13.464,26.07327 28.314,29.11188 v 16.66337 h 23.166 v -16.36931 c 15.048,-2.84257 26.928,-11.37029 27.027,-27.15148 -0.099,-21.56436 -18.81,-29.01386 -36.234,-33.52277 z"
     id="path273"
     inkscape:label="path273"
     style="fill:#33474f;fill-opacity:1;stroke-width:9.85086" />
  <path
     d="M 74.9,27.425743 60.6,11.089109 10,52.475248 24.3,68.811881 Z"
     id="path287"
     style="fill:#33474f;fill-opacity:1;stroke-width:10.9454" />
  <path
     d="M 230,52.475248 197.92089,25.547019 179.4,10 165.1,26.336634 215.7,68.811881 Z"
     id="path128"
     style="fill:#33474f;fill-opacity:1;stroke-width:10.9454" />
</svg>
